# Blender v2.79 (sub 0) OBJ File: ''
# www.blender.org
mtllib kocka_test.mtl
o kocka_Cube
v -1.000000 -1.000000 1.000000
v -1.000000 1.000000 1.000000
v -1.000000 -1.000000 -1.000000
v -1.000000 1.000000 -1.000000
v 1.000000 -1.000000 1.000000
v 1.000000 1.000000 1.000000
v 1.000000 -1.000000 -1.000000
v 1.000000 1.000000 -1.000000
vt 0.335995 0.432508
vt 0.668929 0.765441
vt 0.335995 0.765441
vt 0.000273 0.436790
vt 0.333207 0.769723
vt 0.000273 0.769723
vt 0.668929 0.097442
vt 0.335995 -0.235492
vt 0.668929 -0.235492
vt 1.003106 0.764868
vt 0.670172 0.431934
vt 1.003106 0.431934
vt 0.335248 0.429711
vt 0.668181 0.096777
vt 0.668181 0.429711
vt 0.333436 1.100733
vt 0.666370 0.767799
vt 0.666370 1.100733
vt 0.668929 0.432508
vt 0.333207 0.436790
vt 0.335995 0.097442
vt 0.670172 0.764868
vt 0.335248 0.096777
vt 0.333436 0.767799
vn -1.0000 0.0000 0.0000
vn 0.0000 0.0000 -1.0000
vn 1.0000 0.0000 0.0000
vn 0.0000 0.0000 1.0000
vn 0.0000 -1.0000 0.0000
vn 0.0000 1.0000 0.0000
usemtl Material
s off
f 2/1/1 3/2/1 1/3/1
f 4/4/2 7/5/2 3/6/2
f 8/7/3 5/8/3 7/9/3
f 6/10/4 1/11/4 5/12/4
f 7/13/5 1/14/5 3/15/5
f 4/16/6 6/17/6 8/18/6
f 2/1/1 4/19/1 3/2/1
f 4/4/2 8/20/2 7/5/2
f 8/7/3 6/21/3 5/8/3
f 6/10/4 2/22/4 1/11/4
f 7/13/5 5/23/5 1/14/5
f 4/16/6 2/24/6 6/17/6
