# This file uses centimeters as units for non-parametric coordinates.

mtllib canal.mtl
v 0.044897 1.414802 -3.993515
v 0.044897 1.686123 -3.975252
v 0.044897 1.946371 -3.922050
v 0.044897 2.193159 -3.836301
v 0.044897 2.424098 -3.720386
v 0.044897 2.636807 -3.576693
v 0.044897 2.828896 -3.407609
v 0.044897 2.997979 -3.215520
v 0.044897 3.141671 -3.002811
v 0.043016 3.257587 -2.771767
v 0.044897 3.343338 -2.525084
v 0.044897 3.396538 -2.264837
v 0.044897 3.414802 -1.993516
v 0.044897 3.396538 -1.722195
v 0.044897 3.343338 -1.461948
v 0.044897 3.257587 -1.215160
v 0.044897 3.141673 -0.984220
v 0.044897 2.997979 -0.771512
v 0.044897 2.828896 -0.579423
v 0.044897 2.636806 -0.410339
v 0.044897 2.424098 -0.266646
v 0.044897 2.193159 -0.150731
v 0.044897 1.946371 -0.064981
v 0.044897 1.686122 -0.011780
v 0.044897 1.414802 0.006484
v 0.044897 1.223089 -0.006429
v 0.044897 1.039409 -0.044045
v 0.044897 0.865380 -0.104677
v 0.044897 0.702623 -0.186636
v 0.044897 0.552758 -0.288235
v 0.044897 0.417403 -0.407786
v 0.044897 0.298179 -0.543603
v 0.044897 0.196705 -0.693997
v 0.044897 0.114601 -0.857282
v 0.044897 0.053488 -1.031769
v 0.044897 0.014983 -1.215772
v 0.044897 0.000707 -1.407603
v 0.044897 0.000385 -1.462055
v 0.044897 0.000120 -1.537881
v 0.044897 -0.000085 -1.631026
v 0.044897 -0.000231 -1.737433
v 0.044897 -0.000320 -1.853047
v 0.044897 -0.000349 -1.973812
v 0.044897 -0.000320 -2.095671
v 0.044897 -0.000231 -2.214569
v 0.044897 -0.000085 -2.326450
v 0.044897 0.000120 -2.427257
v 0.044897 0.000385 -2.512936
v 0.044897 0.000707 -2.579429
v 0.044897 0.014661 -2.771263
v 0.044897 0.052955 -2.955268
v 0.044897 0.113954 -3.129756
v 0.044897 0.196024 -3.293042
v 0.044897 0.297527 -3.443436
v 0.044897 0.416828 -3.579252
v 0.044897 0.552292 -3.698802
v 0.044897 0.702283 -3.800400
v 0.044897 0.865165 -3.882357
v 0.044897 1.039302 -3.942986
v 0.044897 1.223060 -3.980603
v -8.045175 1.414802 -3.993412
v -8.045175 1.686123 -3.975148
v -8.045175 1.946371 -3.921947
v -8.045175 2.193159 -3.836195
v -8.045175 2.424098 -3.720282
v -8.045175 2.636807 -3.576589
v -8.045175 2.828896 -3.407505
v -8.045175 2.997979 -3.215415
v -8.045175 3.141671 -3.002707
v -8.045175 3.257587 -2.771767
v -8.045175 3.343338 -2.524980
v -8.045175 3.396538 -2.264732
v -8.045175 3.414802 -1.993412
v -8.045175 3.396538 -1.722090
v -8.045175 3.343338 -1.461843
v -8.045175 3.257587 -1.215056
v -8.045175 3.141673 -0.984116
v -8.045175 2.997979 -0.771407
v -8.045175 2.828896 -0.579318
v -8.045175 2.636806 -0.410234
v -8.045175 2.424098 -0.266542
v -8.045175 2.193159 -0.150627
v -8.045175 1.946371 -0.064876
v -8.045175 1.686122 -0.011676
v -8.045175 1.414802 0.006588
v -8.045175 1.223089 -0.006325
v -8.045175 1.039409 -0.043941
v -8.045175 0.865380 -0.104572
v -8.045175 0.702623 -0.186531
v -8.045175 0.552758 -0.288130
v -8.045175 0.417403 -0.407682
v -8.045175 0.298179 -0.543499
v -8.045175 0.196705 -0.693893
v -8.045175 0.114601 -0.857178
v -8.045175 0.053488 -1.031665
v -8.045175 0.014983 -1.215668
v -8.045175 0.000707 -1.407499
v -8.045175 0.000385 -1.461950
v -8.045175 0.000120 -1.537777
v -8.045175 -0.000085 -1.630921
v -8.045175 -0.000231 -1.737329
v -8.045175 -0.000320 -1.852943
v -8.045175 -0.000349 -1.973707
v -8.045175 -0.000320 -2.095567
v -8.045175 -0.000231 -2.214465
v -8.045175 -0.000085 -2.326344
v -8.045175 0.000120 -2.427153
v -8.045175 0.000385 -2.512832
v -8.045175 0.000707 -2.579325
v -8.045175 0.014661 -2.771159
v -8.045175 0.052955 -2.955163
v -8.045175 0.113954 -3.129652
v -8.045175 0.196024 -3.292937
v -8.045175 0.297527 -3.443332
v -8.045175 0.416828 -3.579147
v -8.045175 0.552292 -3.698698
v -8.045175 0.702283 -3.800296
v -8.045175 0.865165 -3.882253
v -8.045175 1.039302 -3.942883
v -8.045175 1.223060 -3.980498
vt -1.715449 0.569143
vt -0.006540 0.601223
vt -0.006447 0.565399
vt -0.006315 0.514707
vt -1.715450 0.516386
vt -0.006187 0.465190
vt -1.715451 0.464852
vt -0.006060 0.416486
vt -1.715452 0.414166
vt -0.005935 0.368317
vt -1.715453 0.364035
vt -0.005811 0.320469
vt -1.715453 0.314234
vt -0.005688 0.272769
vt -1.715453 0.264587
vt -0.005565 0.225068
vt -1.715454 0.214939
vt -0.005441 0.177221
vt -1.715454 0.165138
vt -0.005316 0.129053
vt -1.715453 0.115007
vt -1.715453 0.064321
vt -0.005190 0.080351
vt -0.005062 0.030834
vt -1.715453 0.012788
vt -0.004931 -0.019859
vt -1.715453 -0.039970
vt -1.713155 2.207900
vt -0.004041 2.138108
vt -1.713156 2.155143
vt -0.004151 2.088605
vt -1.713158 2.103609
vt -0.004260 2.039915
vt -1.713160 2.052923
vt -0.004368 1.991760
vt -1.713161 2.002792
vt -0.004475 1.943925
vt -1.713162 1.952991
vt -0.004581 1.896237
vt -1.713163 1.903344
vt -0.004688 1.848549
vt -1.713164 1.853697
vt -0.004794 1.800715
vt -1.713165 1.803896
vt -0.004901 1.752558
vt -1.713166 1.753765
vt -0.005010 1.703867
vt -1.713166 1.703079
vt -0.005120 1.654363
vt -1.713167 1.651545
vt -0.005233 1.603685
vt -1.713168 1.598788
vt -0.005312 1.567877
vt -1.713168 1.561510
vt -1.713169 1.525135
vt -0.005390 1.532937
vt -1.713170 1.489382
vt -0.005466 1.498593
vt -1.713170 1.454028
vt -0.005541 1.464636
vt -1.713171 1.418902
vt -0.005616 1.430893
vt -1.713171 1.383866
vt -0.005690 1.397240
vt -1.713171 1.348804
vt -0.005765 1.363564
vt -1.713172 1.313607
vt -0.005840 1.329761
vt -1.713172 1.278149
vt -0.005917 1.295710
vt -1.713173 1.242281
vt -0.005994 1.261258
vt -1.713174 1.205810
vt -0.006072 1.226238
vt -1.713174 1.177414
vt -0.006152 1.194868
vt -1.713509 1.166685
vt -0.006420 1.178992
vt -1.713773 1.159110
vt -0.006633 1.164687
vt -0.006796 1.145823
vt -1.713977 1.142429
vt -1.714137 1.127651
vt -0.006918 1.127905
vt -1.714265 1.100856
vt -0.007011 1.103976
vt -1.714376 1.090966
vt -0.007090 1.088234
vt -1.714483 1.063085
vt -0.007107 1.063398
vt -1.714601 1.048305
vt -0.007128 1.045378
vt -1.714742 1.027979
vt -0.007170 1.024684
vt -1.714920 1.013950
vt -0.007245 1.007142
vt -1.715150 1.004045
vt -0.007364 0.991666
vt -1.715445 0.993391
vt -0.007534 0.975821
vt -1.715445 0.962214
vt -0.007439 0.943049
vt -1.715445 0.925751
vt -0.007346 0.908024
vt -1.715446 0.889890
vt -0.007254 0.873571
vt -1.715446 0.854436
vt -0.007164 0.839509
vt -1.715446 0.819234
vt -0.007075 0.805691
vt -1.715447 0.784163
vt -0.006987 0.771996
vt -1.715447 0.749111
vt -0.006898 0.738319
vt -1.715447 0.713965
vt -0.006810 0.704550
vt -1.715448 0.678590
vt -0.006721 0.670562
vt -1.715448 0.642816
vt -0.006631 0.636188
vt -1.715449 0.606427
vt -0.003928 2.188784
vn 0.000000 0.000000 1.000000
vn 0.000000 0.134207 0.990953
vn 0.000000 0.000000 1.000000
vn 0.000000 0.000000 1.000000
vn 0.000000 -0.133998 0.990982
vn 0.000000 -0.133998 0.990982
vn 0.000000 -0.133998 0.990982
vn 0.000000 -0.264801 0.964303
vn 0.000000 -0.264801 0.964303
vn 0.000000 -0.264801 0.964303
vn 0.000000 -0.389219 0.921145
vn 0.000000 -0.389219 0.921145
vn 0.000000 -0.389219 0.921145
vn 0.000000 -0.505201 0.863002
vn 0.000000 -0.505201 0.863002
vn 0.000000 -0.505201 0.863002
vn 0.000000 -0.611522 0.791228
vn 0.000000 -0.611522 0.791228
vn 0.000000 -0.611522 0.791228
vn 0.000000 -0.707107 0.707107
vn 0.000000 -0.707107 0.707107
vn 0.000000 -0.707107 0.707107
vn 0.000000 -0.791228 0.611522
vn 0.000000 -0.791228 0.611522
vn 0.000000 -0.791228 0.611522
vn 0.000000 -0.862933 0.505319
vn 0.000000 -0.863002 0.505201
vn 0.000000 -0.863002 0.505201
vn 0.000000 -0.921145 0.389219
vn 0.000000 -0.921145 0.389219
vn 0.000000 -0.964303 0.264801
vn 0.000000 -0.921145 0.389219
vn 0.000000 -0.964329 0.264708
vn 0.000000 -0.964303 0.264801
vn 0.000000 -0.990982 0.133998
vn 0.000000 -0.990982 0.133998
vn 0.000000 -0.990982 0.133998
vn 0.000000 -1.000000 0.000000
vn 0.000000 -1.000000 0.000000
vn 0.000000 -1.000000 0.000000
vn 0.000000 -0.990982 -0.133998
vn 0.000000 -0.990982 -0.133998
vn 0.000000 -0.990982 -0.133998
vn 0.000000 -0.964303 -0.264801
vn 0.000000 -0.964303 -0.264801
vn 0.000000 -0.964303 -0.264801
vn 0.000000 -0.921145 -0.389219
vn 0.000000 -0.921145 -0.389219
vn 0.000000 -0.921145 -0.389219
vn 0.000000 -0.863002 -0.505201
vn 0.000000 -0.863002 -0.505201
vn 0.000000 -0.863002 -0.505201
vn 0.000000 -0.791228 -0.611522
vn 0.000000 -0.791228 -0.611522
vn 0.000000 -0.791228 -0.611522
vn 0.000000 -0.707107 -0.707107
vn 0.000000 -0.707107 -0.707107
vn 0.000000 -0.707107 -0.707107
vn 0.000000 -0.611522 -0.791228
vn 0.000000 -0.611522 -0.791228
vn 0.000000 -0.611522 -0.791228
vn 0.000000 -0.505201 -0.863002
vn 0.000000 -0.505201 -0.863002
vn 0.000000 -0.505201 -0.863002
vn 0.000000 -0.389219 -0.921145
vn 0.000000 -0.389219 -0.921145
vn 0.000000 -0.389219 -0.921145
vn 0.000000 -0.264801 -0.964303
vn 0.000000 -0.264801 -0.964303
vn 0.000000 -0.264801 -0.964303
vn 0.000000 -0.133998 -0.990982
vn 0.000000 -0.133998 -0.990982
vn 0.000000 -0.133998 -0.990982
vn 0.000000 0.000000 -1.000000
vn 0.000000 0.000000 -1.000000
vn 0.000000 0.000000 -1.000000
vn 0.000000 0.134207 -0.990953
vn 0.000000 0.134207 -0.990953
vn 0.000000 0.265410 -0.964136
vn 0.000000 0.134207 -0.990953
vn 0.000000 0.265410 -0.964136
vn 0.000000 0.390211 -0.920726
vn 0.000000 0.265410 -0.964136
vn 0.000000 0.390211 -0.920726
vn 0.000000 0.506517 -0.862230
vn 0.000000 0.390211 -0.920726
vn 0.000000 0.506517 -0.862230
vn 0.000000 0.612818 -0.790224
vn 0.000000 0.506517 -0.862230
vn 0.000000 0.612818 -0.790224
vn 0.000000 0.708206 -0.706006
vn 0.000000 0.612818 -0.790224
vn 0.000000 0.708206 -0.706006
vn 0.000000 0.791839 -0.610730
vn 0.000000 0.708206 -0.706006
vn 0.000000 0.791839 -0.610730
vn 0.000000 0.862933 -0.505319
vn 0.000000 0.791839 -0.610730
vn 0.000000 0.862933 -0.505319
vn 0.000000 0.920515 -0.390707
vn 0.000000 0.862933 -0.505319
vn 0.000000 0.920515 -0.390707
vn 0.000000 0.963333 -0.268309
vn 0.000000 0.920515 -0.390707
vn 0.000000 0.963333 -0.268309
vn 0.000000 0.990180 -0.139797
vn 0.000000 0.963333 -0.268309
vn 0.000000 0.990180 -0.139797
vn 0.000000 0.999196 -0.040100
vn 0.000000 0.990180 -0.139797
vn 0.000000 0.999196 -0.040100
vn 0.000000 0.999989 -0.004700
vn 0.000000 0.999196 -0.040100
vn 0.000000 0.999989 -0.004700
vn 0.000000 0.999996 -0.002800
vn 0.000000 0.999989 -0.004700
vn 0.000000 0.999996 -0.002800
vn 0.000000 0.999996 -0.002800
vn 0.000000 0.999998 -0.001800
vn 0.000000 0.999998 -0.001800
vn 0.000000 1.000000 -0.001000
vn 0.000000 0.999998 -0.001800
vn 0.000000 0.999999 -0.001100
vn 0.000000 1.000000 -0.000500
vn 0.000000 0.999999 -0.001100
vn 0.000000 1.000000 -0.000500
vn 0.000000 1.000000 0.000000
vn 0.000000 1.000000 -0.000500
vn 0.000000 1.000000 0.000000
vn 0.000000 1.000000 0.000500
vn 0.000000 1.000000 0.000000
vn 0.000000 1.000000 0.000500
vn 0.000000 1.000000 0.001000
vn 0.000000 1.000000 0.000500
vn 0.000000 1.000000 0.001000
vn 0.000000 0.999999 0.001600
vn 0.000000 1.000000 0.001000
vn 0.000000 0.999999 0.001600
vn 0.000000 0.999997 0.002500
vn 0.000000 0.999999 0.001600
vn 0.000000 0.999997 0.002500
vn 0.000000 0.999992 0.004000
vn 0.000000 0.999997 0.002500
vn 0.000000 0.999992 0.003900
vn 0.000000 0.999251 0.038702
vn 0.000000 0.999992 0.003900
vn 0.000000 0.999251 0.038702
vn 0.000000 0.990377 0.138397
vn 0.000000 0.999251 0.038702
vn 0.000000 0.990377 0.138397
vn 0.000000 0.963587 0.267396
vn 0.000000 0.990377 0.138397
vn 0.000000 0.963587 0.267396
vn 0.000000 0.920690 0.390296
vn 0.000000 0.963587 0.267396
vn 0.000000 0.920690 0.390296
vn 0.000000 0.862933 0.505319
vn 0.000000 0.920690 0.390296
vn 0.000000 0.862933 0.505319
vn 0.000000 0.791705 0.610904
vn 0.000000 0.862933 0.505319
vn 0.000000 0.791705 0.610904
vn 0.000000 0.707906 0.706306
vn 0.000000 0.791705 0.610904
vn 0.000000 0.707906 0.706306
vn 0.000000 0.612486 0.790482
vn 0.000000 0.707906 0.706306
vn 0.000000 0.612486 0.790482
vn 0.000000 0.506207 0.862412
vn 0.000000 0.612486 0.790482
vn 0.000000 0.506207 0.862412
vn 0.000000 0.390005 0.920813
vn 0.000000 0.506207 0.862412
vn 0.000000 0.390005 0.920813
vn 0.000000 0.265198 0.964194
vn 0.000000 0.390005 0.920813
vn 0.000000 0.265198 0.964194
vn 0.000000 0.265198 0.964194
vn 0.000000 0.134207 0.990953
vn 0.000000 0.134207 0.990953
vn 0.000000 0.000000 1.000000
vn 0.000000 0.134207 0.990953
vn 0.000000 0.134207 0.990953
vn 0.000000 0.000000 1.000000
vn 0.000000 0.000000 1.000000
vn 0.000000 -0.133998 0.990982
vn 0.000000 -0.133998 0.990982
vn 0.000000 -0.133998 0.990982
vn 0.000000 -0.264801 0.964303
vn 0.000000 -0.264801 0.964303
vn 0.000000 -0.264801 0.964303
vn 0.000000 -0.389219 0.921145
vn 0.000000 -0.389219 0.921145
vn 0.000000 -0.389219 0.921145
vn 0.000000 -0.505201 0.863002
vn 0.000000 -0.505201 0.863002
vn 0.000000 -0.505201 0.863002
vn 0.000000 -0.611522 0.791228
vn 0.000000 -0.611522 0.791228
vn 0.000000 -0.611522 0.791228
vn 0.000000 -0.707107 0.707107
vn 0.000000 -0.707107 0.707107
vn 0.000000 -0.707107 0.707107
vn 0.000000 -0.791228 0.611522
vn 0.000000 -0.791228 0.611522
vn 0.000000 -0.791228 0.611522
vn 0.000000 -0.862933 0.505319
vn 0.000000 -0.863002 0.505201
vn 0.000000 -0.862933 0.505319
vn 0.000000 -0.921145 0.389219
vn 0.000000 -0.964303 0.264801
vn 0.000000 -0.921145 0.389219
vn 0.000000 -0.921145 0.389219
vn 0.000000 -0.964303 0.264801
vn 0.000000 -0.964329 0.264708
vn 0.000000 -0.990982 0.133998
vn 0.000000 -0.990982 0.133998
vn 0.000000 -0.990982 0.133998
vn 0.000000 -1.000000 0.000000
vn 0.000000 -1.000000 0.000000
vn 0.000000 -1.000000 0.000000
vn 0.000000 -0.990982 -0.133998
vn 0.000000 -0.990982 -0.133998
vn 0.000000 -0.990982 -0.133998
vn 0.000000 -0.964303 -0.264801
vn 0.000000 -0.964303 -0.264801
vn 0.000000 -0.964303 -0.264801
vn 0.000000 -0.921145 -0.389219
vn 0.000000 -0.921145 -0.389219
vn 0.000000 -0.921145 -0.389219
vn 0.000000 -0.863002 -0.505201
vn 0.000000 -0.863002 -0.505201
vn 0.000000 -0.863002 -0.505201
vn 0.000000 -0.791228 -0.611522
vn 0.000000 -0.791228 -0.611522
vn 0.000000 -0.791228 -0.611522
vn 0.000000 -0.707107 -0.707107
vn 0.000000 -0.707107 -0.707107
vn 0.000000 -0.707107 -0.707107
vn 0.000000 -0.611522 -0.791228
vn 0.000000 -0.611522 -0.791228
vn 0.000000 -0.611522 -0.791228
vn 0.000000 -0.505201 -0.863002
vn 0.000000 -0.505201 -0.863002
vn 0.000000 -0.505201 -0.863002
vn 0.000000 -0.389219 -0.921145
vn 0.000000 -0.389219 -0.921145
vn 0.000000 -0.389219 -0.921145
vn 0.000000 -0.264801 -0.964303
vn 0.000000 -0.264801 -0.964303
vn 0.000000 -0.264801 -0.964303
vn 0.000000 -0.133998 -0.990982
vn 0.000000 -0.133998 -0.990982
vn 0.000000 -0.133998 -0.990982
vn 0.000000 0.000000 -1.000000
vn 0.000000 0.000000 -1.000000
vn 0.000000 0.000000 -1.000000
vn 0.000000 0.134207 -0.990953
vn 0.000000 0.265410 -0.964136
vn 0.000000 0.134207 -0.990953
vn 0.000000 0.134207 -0.990953
vn 0.000000 0.390211 -0.920726
vn 0.000000 0.265410 -0.964136
vn 0.000000 0.265410 -0.964136
vn 0.000000 0.506517 -0.862230
vn 0.000000 0.390211 -0.920726
vn 0.000000 0.390211 -0.920726
vn 0.000000 0.612818 -0.790224
vn 0.000000 0.506517 -0.862230
vn 0.000000 0.506517 -0.862230
vn 0.000000 0.708206 -0.706006
vn 0.000000 0.612818 -0.790224
vn 0.000000 0.612818 -0.790224
vn 0.000000 0.791839 -0.610730
vn 0.000000 0.708206 -0.706006
vn 0.000000 0.708206 -0.706006
vn 0.000000 0.862933 -0.505319
vn 0.000000 0.791839 -0.610730
vn 0.000000 0.791839 -0.610730
vn 0.000000 0.920515 -0.390707
vn 0.000000 0.862933 -0.505319
vn 0.000000 0.862933 -0.505319
vn 0.000000 0.963333 -0.268309
vn 0.000000 0.920515 -0.390707
vn 0.000000 0.920515 -0.390707
vn 0.000000 0.990180 -0.139797
vn 0.000000 0.963333 -0.268309
vn 0.000000 0.963333 -0.268309
vn 0.000000 0.999196 -0.040100
vn 0.000000 0.990180 -0.139797
vn 0.000000 0.990180 -0.139797
vn 0.000000 0.999989 -0.004700
vn 0.000000 0.999196 -0.040100
vn 0.000000 0.999196 -0.040100
vn 0.000000 0.999996 -0.002800
vn 0.000000 0.999989 -0.004700
vn 0.000000 0.999989 -0.004700
vn 0.000000 0.999996 -0.002800
vn 0.000000 0.999996 -0.002800
vn 0.000000 0.999998 -0.001800
vn 0.000000 1.000000 -0.001000
vn 0.000000 0.999998 -0.001800
vn 0.000000 0.999998 -0.001800
vn 0.000000 1.000000 -0.000500
vn 0.000000 1.000000 -0.001000
vn 0.000000 0.999999 -0.001100
vn 0.000000 1.000000 0.000000
vn 0.000000 1.000000 -0.000500
vn 0.000000 1.000000 -0.000500
vn 0.000000 1.000000 0.000500
vn 0.000000 1.000000 0.000000
vn 0.000000 1.000000 0.000000
vn 0.000000 1.000000 0.001000
vn 0.000000 1.000000 0.000500
vn 0.000000 1.000000 0.000500
vn 0.000000 0.999999 0.001600
vn 0.000000 1.000000 0.001000
vn 0.000000 1.000000 0.001000
vn 0.000000 0.999997 0.002500
vn 0.000000 0.999999 0.001600
vn 0.000000 0.999999 0.001600
vn 0.000000 0.999992 0.004000
vn 0.000000 0.999997 0.002500
vn 0.000000 0.999997 0.002500
vn 0.000000 0.999251 0.038702
vn 0.000000 0.999992 0.004000
vn 0.000000 0.999992 0.003900
vn 0.000000 0.990377 0.138397
vn 0.000000 0.999251 0.038702
vn 0.000000 0.999251 0.038702
vn 0.000000 0.963587 0.267396
vn 0.000000 0.990377 0.138397
vn 0.000000 0.990377 0.138397
vn 0.000000 0.920690 0.390296
vn 0.000000 0.963587 0.267396
vn 0.000000 0.963587 0.267396
vn 0.000000 0.862933 0.505319
vn 0.000000 0.920690 0.390296
vn 0.000000 0.920690 0.390296
vn 0.000000 0.791705 0.610904
vn 0.000000 0.862933 0.505319
vn 0.000000 0.862933 0.505319
vn 0.000000 0.707906 0.706306
vn 0.000000 0.791705 0.610904
vn 0.000000 0.791705 0.610904
vn 0.000000 0.612486 0.790482
vn 0.000000 0.707906 0.706306
vn 0.000000 0.707906 0.706306
vn 0.000000 0.506207 0.862412
vn 0.000000 0.612486 0.790482
vn 0.000000 0.612486 0.790482
vn 0.000000 0.390005 0.920813
vn 0.000000 0.506207 0.862412
vn 0.000000 0.506207 0.862412
vn 0.000000 0.265198 0.964194
vn 0.000000 0.390005 0.920813
vn 0.000000 0.390005 0.920813
vn 0.000000 0.265198 0.964194
vn 0.000000 0.265198 0.964194
vn 0.000000 0.134207 0.990953
usemtl Material
f 61/1/1 60/2/2 1/3/3
f 61/1/4 2/4/5 62/5/6
f 62/5/7 3/6/8 63/7/9
f 63/7/10 4/8/11 64/9/12
f 64/9/13 5/10/14 65/11/15
f 65/11/16 6/12/17 66/13/18
f 66/13/19 7/14/20 67/15/21
f 67/15/22 8/16/23 68/17/24
f 68/17/25 9/18/26 69/19/27
f 69/19/28 10/20/29 70/21/30
f 71/22/31 10/20/32 11/23/33
f 71/22/34 12/24/35 72/25/36
f 72/25/37 13/26/38 73/27/39
f 73/28/40 14/29/41 74/30/42
f 74/30/43 15/31/44 75/32/45
f 75/32/46 16/33/47 76/34/48
f 76/34/49 17/35/50 77/36/51
f 77/36/52 18/37/53 78/38/54
f 78/38/55 19/39/56 79/40/57
f 79/40/58 20/41/59 80/42/60
f 80/42/61 21/43/62 81/44/63
f 81/44/64 22/45/65 82/46/66
f 82/46/67 23/47/68 83/48/69
f 83/48/70 24/49/71 84/50/72
f 84/50/73 25/51/74 85/52/75
f 85/52/76 26/53/77 86/54/78
f 87/55/79 26/53/80 27/56/81
f 88/57/82 27/56/83 28/58/84
f 89/59/85 28/58/86 29/60/87
f 90/61/88 29/60/89 30/62/90
f 91/63/91 30/62/92 31/64/93
f 92/65/94 31/64/95 32/66/96
f 93/67/97 32/66/98 33/68/99
f 94/69/100 33/68/101 34/70/102
f 95/71/103 34/70/104 35/72/105
f 96/73/106 35/72/107 36/74/108
f 97/75/109 36/74/110 37/76/111
f 98/77/112 37/76/113 38/78/114
f 99/79/115 38/78/116 39/80/117
f 99/79/118 40/81/119 100/82/120
f 101/83/121 40/81/122 41/84/123
f 102/85/124 41/84/125 42/86/126
f 103/87/127 42/86/128 43/88/129
f 104/89/130 43/88/131 44/90/132
f 105/91/133 44/90/134 45/92/135
f 106/93/136 45/92/137 46/94/138
f 107/95/139 46/94/140 47/96/141
f 108/97/142 47/96/143 48/98/144
f 109/99/145 48/98/146 49/100/147
f 110/101/148 49/100/149 50/102/150
f 111/103/151 50/102/152 51/104/153
f 112/105/154 51/104/155 52/106/156
f 113/107/157 52/106/158 53/108/159
f 114/109/160 53/108/161 54/110/162
f 115/111/163 54/110/164 55/112/165
f 116/113/166 55/112/167 56/114/168
f 117/115/169 56/114/170 57/116/171
f 118/117/172 57/116/173 58/118/174
f 119/119/175 58/118/176 59/120/177
f 119/119/178 60/2/179 120/121/180
f 61/1/181 120/121/182 60/2/183
f 61/1/184 1/3/185 2/4/186
f 62/5/187 2/4/188 3/6/189
f 63/7/190 3/6/191 4/8/192
f 64/9/193 4/8/194 5/10/195
f 65/11/196 5/10/197 6/12/198
f 66/13/199 6/12/200 7/14/201
f 67/15/202 7/14/203 8/16/204
f 68/17/205 8/16/206 9/18/207
f 69/19/208 9/18/209 10/20/210
f 71/22/211 70/21/212 10/20/213
f 71/22/214 11/23/215 12/24/216
f 72/25/217 12/24/218 13/26/219
f 73/28/220 13/122/221 14/29/222
f 74/30/223 14/29/224 15/31/225
f 75/32/226 15/31/227 16/33/228
f 76/34/229 16/33/230 17/35/231
f 77/36/232 17/35/233 18/37/234
f 78/38/235 18/37/236 19/39/237
f 79/40/238 19/39/239 20/41/240
f 80/42/241 20/41/242 21/43/243
f 81/44/244 21/43/245 22/45/246
f 82/46/247 22/45/248 23/47/249
f 83/48/250 23/47/251 24/49/252
f 84/50/253 24/49/254 25/51/255
f 85/52/256 25/51/257 26/53/258
f 87/55/259 86/54/260 26/53/261
f 88/57/262 87/55/263 27/56/264
f 89/59/265 88/57/266 28/58/267
f 90/61/268 89/59/269 29/60/270
f 91/63/271 90/61/272 30/62/273
f 92/65/274 91/63/275 31/64/276
f 93/67/277 92/65/278 32/66/279
f 94/69/280 93/67/281 33/68/282
f 95/71/283 94/69/284 34/70/285
f 96/73/286 95/71/287 35/72/288
f 97/75/289 96/73/290 36/74/291
f 98/77/292 97/75/293 37/76/294
f 99/79/295 98/77/296 38/78/297
f 99/79/298 39/80/299 40/81/300
f 101/83/301 100/82/302 40/81/303
f 102/85/304 101/83/305 41/84/306
f 103/87/307 102/85/308 42/86/309
f 104/89/310 103/87/311 43/88/312
f 105/91/313 104/89/314 44/90/315
f 106/93/316 105/91/317 45/92/318
f 107/95/319 106/93/320 46/94/321
f 108/97/322 107/95/323 47/96/324
f 109/99/325 108/97/326 48/98/327
f 110/101/328 109/99/329 49/100/330
f 111/103/331 110/101/332 50/102/333
f 112/105/334 111/103/335 51/104/336
f 113/107/337 112/105/338 52/106/339
f 114/109/340 113/107/341 53/108/342
f 115/111/343 114/109/344 54/110/345
f 116/113/346 115/111/347 55/112/348
f 117/115/349 116/113/350 56/114/351
f 118/117/352 117/115/353 57/116/354
f 119/119/355 118/117/356 58/118/357
f 119/119/358 59/120/359 60/2/360
