# Blender v2.79 (sub 0) OBJ File: 'vrata.blend'
# www.blender.org
mtllib zelezna_vrata_nosilec.mtl
o zelezna_vrata_nosilec_Cube.004
v 0.821609 -0.186166 -1.999179
v 0.821609 0.099607 -1.999179
v 0.821614 -0.186166 2.781784
v 0.821614 0.099607 2.781784
v 1.405293 -0.186166 -1.999180
v 1.405293 0.099607 -1.999180
v 1.405298 -0.186166 2.781784
v 1.405298 0.099607 2.781784
v 0.821612 -0.186166 0.780956
v 0.821610 -0.186166 -0.779314
v 0.821610 0.099607 -0.779314
v 0.821612 0.099607 0.780956
v 1.405295 -0.186166 -0.779314
v 1.405296 -0.186166 0.780955
v 1.405296 0.099607 0.780955
v 1.405295 0.099607 -0.779314
v 1.063791 -0.186166 2.781784
v 1.063791 0.099607 2.781784
v 1.063786 -0.186166 -1.999179
v 1.063786 0.099607 -1.999179
v 1.063789 0.099607 0.780955
v 1.063787 0.099607 -0.779314
v 1.063789 -0.186166 0.780955
v 1.063787 -0.186166 -0.779314
v 0.821609 -0.089507 -1.999179
v 0.821614 -0.089507 2.781784
v 1.405298 -0.089507 2.781784
v 1.405293 -0.089507 -1.999180
v 1.405296 -0.089507 0.780955
v 1.405295 -0.089507 -0.779314
v 0.821610 -0.089507 -0.779314
v 0.821612 -0.089507 0.780956
v 1.063786 -0.089507 -1.999179
v 1.063791 -0.089507 2.781784
v 1.063789 -0.099526 0.780955
v 1.063787 -0.099526 -0.779314
v 0.821610 -0.186166 -1.023287
v 0.821610 -0.186166 -1.267260
v 0.821609 -0.186166 -1.511233
v 0.821609 -0.186166 -1.755206
v 1.405294 0.099607 -1.023287
v 1.405294 0.099607 -1.267260
v 1.405294 0.099607 -1.511233
v 1.405294 0.099607 -1.755206
v 0.821609 0.099607 -1.755206
v 0.821609 0.099607 -1.511233
v 0.821610 0.099607 -1.267260
v 0.821610 0.099607 -1.023287
v 1.405294 -0.186166 -1.755206
v 1.405294 -0.186166 -1.511233
v 1.405294 -0.186166 -1.267260
v 1.405294 -0.186166 -1.023287
v 1.063787 0.099607 -1.023287
v 1.063787 0.099607 -1.267260
v 1.063787 0.099607 -1.511233
v 1.063786 0.099607 -1.755206
v 1.063787 -0.186166 -1.023287
v 1.063787 -0.186166 -1.267260
v 1.063787 -0.186166 -1.511233
v 1.063786 -0.186166 -1.755206
v 0.821609 -0.089507 -1.755206
v 0.821609 -0.089507 -1.511233
v 0.821610 -0.089507 -1.267260
v 0.821610 -0.089507 -1.023287
v 1.405294 -0.089507 -1.023287
v 1.405294 -0.089507 -1.267260
v 1.405294 -0.089507 -1.511233
v 1.405294 -0.089507 -1.755206
v 1.405294 0.189804 -1.023287
v 1.405294 0.189804 -1.267260
v 1.405294 0.189804 -1.511233
v 1.405294 0.189804 -1.755206
v 0.821609 0.189804 -1.755206
v 0.821609 0.189804 -1.511233
v 0.821610 0.189804 -1.267260
v 0.821610 0.189804 -1.023287
v 1.063787 0.189804 -1.023287
v 1.063787 0.189804 -1.267260
v 1.063787 0.189804 -1.511233
v 1.063786 0.189804 -1.755206
v 0.821612 0.099607 1.181121
v 0.821613 0.099607 1.581287
v 0.821613 0.099607 1.981453
v 0.821613 0.099607 2.381618
v 1.405297 -0.186166 1.181121
v 1.405297 -0.186166 1.581287
v 1.405297 -0.186166 1.981452
v 1.405298 -0.186166 2.381618
v 0.821613 -0.186166 2.381618
v 0.821613 -0.186166 1.981453
v 0.821613 -0.186166 1.581287
v 0.821612 -0.186166 1.181121
v 1.405298 0.099607 2.381618
v 1.405297 0.099607 1.981452
v 1.405297 0.099607 1.581287
v 1.405297 0.099607 1.181121
v 1.063790 -0.186166 2.381618
v 1.063790 -0.186166 1.981453
v 1.063790 -0.186166 1.581287
v 1.063789 -0.186166 1.181121
v 1.063790 0.099607 2.381618
v 1.063790 0.099607 1.981453
v 1.063790 0.099607 1.581287
v 1.063789 0.099607 1.181121
v 1.405298 -0.089507 2.381618
v 1.405297 -0.089507 1.981452
v 1.405297 -0.089507 1.581287
v 1.405297 -0.089507 1.181121
v 0.821612 -0.089507 1.181121
v 0.821613 -0.089507 1.581287
v 0.821613 -0.089507 1.981453
v 0.821613 -0.089507 2.381618
v 0.821612 0.190717 1.181121
v 0.821613 0.190717 1.581287
v 0.821613 0.190717 1.981453
v 0.821613 0.190717 2.381618
v 1.405298 0.190717 2.381618
v 1.405297 0.190717 1.981452
v 1.405297 0.190717 1.581287
v 1.405297 0.190717 1.181121
v 1.063790 0.190717 2.381618
v 1.063790 0.190717 1.981453
v 1.063790 0.190717 1.581287
v 1.063789 0.190717 1.181121
vt -0.125286 -0.825070
vt -0.218562 -0.628364
vt -0.125286 -0.628364
vt 1.446430 1.405032
vt 1.539706 1.227798
vt 1.446430 1.227798
vt 0.257892 -0.825070
vt 0.164616 -0.705142
vt 0.257893 -0.705142
vt 1.435610 -0.825070
vt 1.342334 -0.699386
vt 1.435610 -0.699386
vt -0.586901 -0.825070
vt -0.764735 -0.705143
vt -0.586901 -0.705143
vt 0.623192 1.579924
vt 0.502858 1.454240
vt 0.502858 1.579924
vt 0.628968 0.061825
vt 0.502858 0.258531
vt 0.628968 0.258531
vt 1.453612 0.731025
vt 1.327502 0.638064
vt 1.327502 0.735950
vt -0.586900 0.738241
vt -0.764735 0.541535
vt -0.764735 0.738241
vt -0.586901 -0.225432
vt -0.586901 0.541535
vt 0.257893 0.541535
vt 0.164617 0.738241
vt 0.257893 0.738241
vt 0.257893 -0.225432
vt 0.164617 0.541535
vt -0.125286 0.925426
vt -0.218562 1.045354
vt -0.125286 1.045354
vt 1.145043 -0.058103
vt 1.102310 -0.825070
vt 1.102310 -0.058103
vt -0.460790 0.541535
vt -0.460790 0.738241
vt 0.806802 -0.705143
vt 0.806803 0.061825
vt 0.806803 0.258531
vt 0.623192 1.757158
vt 0.502858 1.757158
vt -0.460791 -0.825070
vt -0.460791 -0.705143
vt 1.342334 -0.522151
vt 1.435610 -0.522151
vt 1.539706 1.102113
vt 1.446430 1.102113
vt 1.398755 1.227798
vt 1.398755 1.102114
vt 1.483284 -0.699386
vt 1.483284 -0.522151
vt -0.077612 0.158459
vt -0.077612 0.925426
vt -0.077612 1.045354
vt 0.305567 -0.225432
vt 0.305567 0.541535
vt 0.305567 0.738241
vt 1.483284 -0.825070
vt 0.305567 -0.825070
vt 0.305567 -0.705142
vt 1.398755 1.405032
vt -0.077612 -0.825070
vt -0.077612 -0.628364
vt 1.342334 -0.185053
vt 1.468444 -0.185053
vt 1.468444 -0.227641
vt 1.004093 -0.825070
vt 1.004093 -0.058103
vt 1.004093 0.905489
vt 1.130211 0.138522
vt 1.004093 0.138522
vt 0.305567 -0.345360
vt 0.305567 -0.465287
vt 0.257893 -0.345360
vt 0.305567 -0.585215
vt 0.257893 -0.465287
vt 0.257893 -0.585215
vt -0.077611 1.405137
vt -0.125286 1.525065
vt -0.077611 1.525065
vt -0.077611 1.285209
vt -0.125286 1.405137
vt -0.077611 1.165282
vt -0.125286 1.285209
vt -0.125286 1.165282
vt -0.460791 -0.345360
vt -0.460791 -0.225432
vt -0.460791 -0.465287
vt -0.586901 -0.345360
vt -0.460791 -0.585215
vt -0.586901 -0.465287
vt -0.586901 -0.585215
vt 0.806802 -0.825070
vt 0.628968 -0.705143
vt -0.764735 1.847373
vt -0.720248 2.024607
vt -0.720248 1.847373
vt 1.680574 -0.825070
vt 1.800908 -0.647836
vt 1.800908 -0.825070
vt -0.263049 1.285209
vt -0.218562 1.405137
vt -0.218562 1.285209
vt -0.218562 1.525065
vt -0.218562 1.165282
vt 0.628968 -0.825070
vt 0.502858 -0.705143
vt 2.023712 1.904575
vt 1.979225 1.778891
vt 1.979225 1.904575
vt 1.680574 -0.647836
vt 1.800908 -0.522152
vt 2.042686 -0.522152
vt 1.998199 -0.699386
vt 1.998199 -0.522152
vt -0.764735 -0.225432
vt -0.764735 -0.345360
vt -0.764735 -0.585215
vt -0.764735 -0.465287
vt 0.164617 -0.225432
vt 0.164617 -0.345360
vt 0.164616 -0.465287
vt 0.164616 -0.585215
vt 1.857330 1.405031
vt 1.736996 1.227798
vt 1.736996 1.405032
vt 1.722164 0.138522
vt 1.842498 0.315756
vt 1.842498 0.138522
vt 1.857330 1.227798
vt 1.736996 1.102113
vt 1.722164 0.315756
vt 1.842498 0.441440
vt 2.042686 -0.699386
vt 1.998199 -0.825070
vt 2.039788 0.138522
vt 2.084276 0.315756
vt 2.084276 0.138522
vt 0.120129 -0.705142
vt -0.764735 1.721689
vt -0.720248 1.721689
vt 2.023712 1.778891
vt 1.979225 1.601656
vt -0.263049 1.045354
vt 2.039788 0.315756
vt 2.084276 0.441440
vt 0.120129 -0.465287
vt -0.077612 -0.038247
vt -0.125286 0.158459
vt -0.077612 -0.234953
vt -0.125286 -0.038247
vt -0.077612 -0.431658
vt -0.125286 -0.234953
vt -0.125286 -0.431658
vt 0.305568 1.328359
vt 0.257893 1.525065
vt 0.305568 1.525065
vt 0.305567 1.131653
vt 0.257893 1.328359
vt 0.305567 0.934947
vt 0.257893 1.131653
vt 0.257893 0.934947
vt 1.004093 1.405032
vt 1.201465 1.227798
vt 1.004093 1.227798
vt 0.119679 1.131653
vt 0.164617 1.328359
vt 0.164617 1.131653
vt 0.700230 1.257616
vt 0.502858 1.080381
vt 0.502858 1.257616
vt 1.781934 1.904575
vt 1.736996 1.727341
vt 1.736996 1.904575
vt -0.460790 1.328359
vt -0.586900 1.525064
vt -0.460790 1.525064
vt -0.460790 1.131653
vt -0.586900 1.328359
vt -0.460790 0.934947
vt -0.586900 1.131653
vt -0.586900 0.934947
vt 0.164617 1.525065
vt 0.164617 0.934947
vt -0.764735 1.525064
vt -0.764735 1.328359
vt -0.764735 0.934947
vt -0.764735 1.131653
vt 1.004093 1.102114
vt 1.049031 1.904574
vt 1.004093 1.778890
vt 1.004093 1.904574
vt 0.700230 0.954697
vt 0.502858 0.954697
vt 1.252539 1.727341
vt 1.297477 1.904575
vt 1.297477 1.727341
vt -0.218562 0.158459
vt -0.218562 -0.038247
vt -0.218562 -0.234953
vt -0.218562 -0.431658
vt 0.502858 0.758073
vt 0.700230 0.580839
vt 0.502858 0.580839
vt 1.524874 0.441440
vt 1.327502 0.264206
vt 1.327502 0.441440
vt 0.700230 0.455155
vt 0.502858 0.455155
vt 1.524874 0.264206
vt 1.327502 0.138522
vt -0.263500 -0.628364
vt 1.494768 1.778891
vt 1.539706 1.904575
vt 1.539706 1.778891
vt 1.049031 1.778890
vt 1.004093 1.601656
vt -0.263500 -0.234953
vt 1.252539 1.601656
vt 1.297477 1.601656
vt 1.494768 1.601656
vt 1.539706 1.601656
vt 0.119679 0.738241
vt 1.781934 1.727340
vt 1.736996 1.601656
vt -0.218562 -0.825070
vt 1.539706 1.405032
vt 0.164616 -0.825070
vt 1.342334 -0.825070
vt -0.764735 -0.825070
vt 0.623192 1.454240
vt 0.502858 0.061825
vt 1.327502 0.778539
vt 1.453612 0.778539
vt 1.453612 0.638064
vt -0.218562 0.925426
vt 1.145043 -0.825070
vt 1.468444 -0.325527
vt 1.342334 -0.232566
vt 1.342334 -0.325527
vt 1.130211 0.905489
vt -0.764735 2.024607
vt -0.263049 1.405137
vt 0.502858 -0.825070
vt 1.680574 -0.522152
vt 1.857330 1.102113
vt 1.722164 0.441440
vt 2.042686 -0.825070
vt 0.120129 -0.585215
vt 2.023712 1.601656
vt -0.263049 1.165282
vt 2.039788 0.441440
vt 0.120129 -0.345360
vt 1.201465 1.405032
vt 0.119679 1.328359
vt 0.700230 1.080381
vt 1.201465 1.102113
vt 1.252539 1.904575
vt 0.700230 0.758073
vt 1.524874 0.138522
vt -0.263500 -0.431658
vt 1.494768 1.904575
vt 1.049031 1.601656
vt -0.263500 -0.038247
vt 0.119679 0.934947
vt 1.781934 1.601656
vn -1.0000 0.0000 0.0000
vn 0.0000 0.0000 1.0000
vn 1.0000 0.0000 -0.0000
vn -0.0000 0.0000 -1.0000
vn 0.0000 -1.0000 0.0000
vn 0.0000 1.0000 0.0000
vn 0.0413 0.9991 -0.0000
usemtl Material.002
s off
f 26/1/1 84/2/1 112/3/1
f 27/4/2 18/5/2 34/6/2
f 28/7/3 44/8/3 68/9/3
f 25/10/4 20/11/4 33/12/4
f 19/13/5 49/14/5 60/15/5
f 20/16/6 45/17/6 56/18/6
f 21/19/6 81/20/6 104/21/6
f 32/22/4 21/23/4 35/24/4
f 100/25/5 14/26/5 85/27/5
f 24/28/5 14/26/5 23/29/5
f 29/30/3 96/31/3 108/32/3
f 30/33/3 15/34/3 29/30/3
f 31/35/1 48/36/1 64/37/1
f 24/38/1 35/39/1 36/40/1
f 9/41/5 24/28/5 23/29/5
f 9/41/5 100/25/5 92/42/5
f 16/43/6 21/19/6 15/44/6
f 15/44/6 104/21/6 96/45/6
f 6/46/6 56/18/6 44/47/6
f 1/48/5 60/15/5 40/49/5
f 33/12/4 6/50/4 28/51/4
f 34/6/2 4/52/2 26/53/2
f 17/54/2 26/53/2 3/55/2
f 19/56/4 28/51/4 5/57/4
f 9/58/1 31/35/1 10/59/1
f 10/59/1 64/37/1 37/60/1
f 13/61/3 29/30/3 14/62/3
f 14/62/3 108/32/3 85/63/3
f 1/64/4 33/12/4 19/56/4
f 5/65/3 68/9/3 49/66/3
f 7/67/2 34/6/2 17/54/2
f 3/68/1 112/3/1 89/69/1
f 10/70/2 24/71/2 36/72/2
f 36/40/1 21/73/1 22/74/1
f 32/75/7 36/76/7 31/77/7
f 52/78/3 30/33/3 13/61/3
f 51/79/3 65/80/3 52/78/3
f 50/81/3 66/82/3 51/79/3
f 49/66/3 67/83/3 50/81/3
f 40/84/1 25/85/1 1/86/1
f 39/87/1 61/88/1 40/84/1
f 38/89/1 62/90/1 39/87/1
f 37/60/1 63/91/1 38/89/1
f 37/92/5 24/28/5 10/93/5
f 38/94/5 57/95/5 37/92/5
f 39/96/5 58/97/5 38/94/5
f 40/49/5 59/98/5 39/96/5
f 41/99/6 22/100/6 16/43/6
f 80/101/4 44/102/4 56/103/4
f 43/104/6 54/105/6 42/106/6
f 74/107/1 45/108/1 46/109/1
f 61/88/1 2/110/1 25/85/1
f 62/90/1 45/108/1 61/88/1
f 63/91/1 46/109/1 62/90/1
f 64/37/1 47/111/1 63/91/1
f 53/112/6 11/113/6 22/100/6
f 75/114/4 54/115/4 47/116/4
f 55/117/6 47/118/6 54/105/6
f 71/119/2 55/120/2 43/121/2
f 57/95/5 13/122/5 24/28/5
f 58/97/5 52/123/5 57/95/5
f 58/97/5 50/124/5 51/125/5
f 59/98/5 49/14/5 50/124/5
f 65/80/3 16/126/3 30/33/3
f 66/82/3 41/127/3 65/80/3
f 67/83/3 42/128/3 66/82/3
f 68/9/3 43/129/3 67/83/3
f 70/130/6 77/131/6 69/132/6
f 72/133/6 79/134/6 71/135/6
f 78/136/6 76/137/6 77/131/6
f 80/138/6 74/139/6 79/134/6
f 79/140/2 46/141/2 55/120/2
f 69/142/2 53/143/2 41/144/2
f 72/145/3 43/129/3 44/8/3
f 73/146/4 56/103/4 45/147/4
f 78/148/4 42/149/4 54/115/4
f 76/150/1 47/111/1 48/36/1
f 77/151/2 48/152/2 53/143/2
f 70/153/3 41/127/3 42/128/3
f 92/154/1 32/155/1 9/58/1
f 91/156/1 109/157/1 92/154/1
f 90/158/1 110/159/1 91/156/1
f 89/69/1 111/160/1 90/158/1
f 88/161/3 27/162/3 7/163/3
f 87/164/3 105/165/3 88/161/3
f 86/166/3 106/167/3 87/164/3
f 85/63/3 107/168/3 86/166/3
f 8/169/6 101/170/6 18/171/6
f 118/172/3 93/173/3 94/174/3
f 95/175/6 102/176/6 94/177/6
f 117/178/2 101/179/2 93/180/2
f 89/181/5 17/182/5 3/183/5
f 90/184/5 97/185/5 89/181/5
f 91/186/5 98/187/5 90/184/5
f 92/42/5 99/188/5 91/186/5
f 105/165/3 8/189/3 27/162/3
f 106/167/3 93/173/3 105/165/3
f 107/168/3 94/174/3 106/167/3
f 108/32/3 95/190/3 107/168/3
f 97/185/5 7/191/5 17/182/5
f 98/187/5 88/192/5 97/185/5
f 98/187/5 86/193/5 87/194/5
f 99/188/5 85/27/5 86/193/5
f 101/170/6 4/195/6 18/171/6
f 115/196/4 102/197/4 83/198/4
f 102/176/6 82/199/6 83/200/6
f 124/201/4 96/202/4 104/203/4
f 109/157/1 12/204/1 32/155/1
f 110/159/1 81/205/1 109/157/1
f 111/160/1 82/206/1 110/159/1
f 112/3/1 83/207/1 111/160/1
f 117/208/6 122/209/6 121/210/6
f 120/211/6 123/212/6 119/213/6
f 121/210/6 115/214/6 116/215/6
f 124/216/6 114/217/6 123/212/6
f 116/218/1 83/207/1 84/2/1
f 123/219/2 82/220/2 103/221/2
f 122/222/4 94/223/4 102/197/4
f 114/224/1 81/205/1 82/206/1
f 113/225/4 104/203/4 81/226/4
f 119/227/2 103/221/2 95/228/2
f 120/229/3 95/190/3 96/31/3
f 121/230/2 84/231/2 101/179/2
f 26/1/1 4/232/1 84/2/1
f 27/4/2 8/233/2 18/5/2
f 28/7/3 6/234/3 44/8/3
f 25/10/4 2/235/4 20/11/4
f 19/13/5 5/236/5 49/14/5
f 20/16/6 2/237/6 45/17/6
f 21/19/6 12/238/6 81/20/6
f 35/24/4 23/239/4 9/240/4
f 32/22/4 12/241/4 21/23/4
f 35/24/4 9/240/4 32/22/4
f 100/25/5 23/29/5 14/26/5
f 24/28/5 13/122/5 14/26/5
f 29/30/3 15/34/3 96/31/3
f 30/33/3 16/126/3 15/34/3
f 31/35/1 11/242/1 48/36/1
f 24/38/1 23/243/1 35/39/1
f 9/41/5 10/93/5 24/28/5
f 9/41/5 23/29/5 100/25/5
f 16/43/6 22/100/6 21/19/6
f 15/44/6 21/19/6 104/21/6
f 6/46/6 20/16/6 56/18/6
f 1/48/5 19/13/5 60/15/5
f 33/12/4 20/11/4 6/50/4
f 34/6/2 18/5/2 4/52/2
f 17/54/2 34/6/2 26/53/2
f 19/56/4 33/12/4 28/51/4
f 9/58/1 32/155/1 31/35/1
f 10/59/1 31/35/1 64/37/1
f 13/61/3 30/33/3 29/30/3
f 14/62/3 29/30/3 108/32/3
f 1/64/4 25/10/4 33/12/4
f 5/65/3 28/7/3 68/9/3
f 7/67/2 27/4/2 34/6/2
f 3/68/1 26/1/1 112/3/1
f 36/72/2 22/244/2 31/245/2
f 22/244/2 11/246/2 31/245/2
f 31/245/2 10/70/2 36/72/2
f 36/40/1 35/39/1 21/73/1
f 32/75/7 35/247/7 36/76/7
f 52/78/3 65/80/3 30/33/3
f 51/79/3 66/82/3 65/80/3
f 50/81/3 67/83/3 66/82/3
f 49/66/3 68/9/3 67/83/3
f 40/84/1 61/88/1 25/85/1
f 39/87/1 62/90/1 61/88/1
f 38/89/1 63/91/1 62/90/1
f 37/60/1 64/37/1 63/91/1
f 37/92/5 57/95/5 24/28/5
f 38/94/5 58/97/5 57/95/5
f 39/96/5 59/98/5 58/97/5
f 40/49/5 60/15/5 59/98/5
f 41/99/6 53/112/6 22/100/6
f 80/101/4 72/248/4 44/102/4
f 43/104/6 55/117/6 54/105/6
f 74/107/1 73/249/1 45/108/1
f 61/88/1 45/108/1 2/110/1
f 62/90/1 46/109/1 45/108/1
f 63/91/1 47/111/1 46/109/1
f 64/37/1 48/36/1 47/111/1
f 53/112/6 48/250/6 11/113/6
f 75/114/4 78/148/4 54/115/4
f 55/117/6 46/251/6 47/118/6
f 71/119/2 79/140/2 55/120/2
f 57/95/5 52/123/5 13/122/5
f 58/97/5 51/125/5 52/123/5
f 58/97/5 59/98/5 50/124/5
f 59/98/5 60/15/5 49/14/5
f 65/80/3 41/127/3 16/126/3
f 66/82/3 42/128/3 41/127/3
f 67/83/3 43/129/3 42/128/3
f 68/9/3 44/8/3 43/129/3
f 70/130/6 78/136/6 77/131/6
f 72/133/6 80/138/6 79/134/6
f 78/136/6 75/252/6 76/137/6
f 80/138/6 73/253/6 74/139/6
f 79/140/2 74/254/2 46/141/2
f 69/142/2 77/151/2 53/143/2
f 72/145/3 71/255/3 43/129/3
f 73/146/4 80/101/4 56/103/4
f 78/148/4 70/256/4 42/149/4
f 76/150/1 75/257/1 47/111/1
f 77/151/2 76/258/2 48/152/2
f 70/153/3 69/259/3 41/127/3
f 92/154/1 109/157/1 32/155/1
f 91/156/1 110/159/1 109/157/1
f 90/158/1 111/160/1 110/159/1
f 89/69/1 112/3/1 111/160/1
f 88/161/3 105/165/3 27/162/3
f 87/164/3 106/167/3 105/165/3
f 86/166/3 107/168/3 106/167/3
f 85/63/3 108/32/3 107/168/3
f 8/169/6 93/260/6 101/170/6
f 118/172/3 117/261/3 93/173/3
f 95/175/6 103/262/6 102/176/6
f 117/178/2 121/230/2 101/179/2
f 89/181/5 97/185/5 17/182/5
f 90/184/5 98/187/5 97/185/5
f 91/186/5 99/188/5 98/187/5
f 92/42/5 100/25/5 99/188/5
f 105/165/3 93/173/3 8/189/3
f 106/167/3 94/174/3 93/173/3
f 107/168/3 95/190/3 94/174/3
f 108/32/3 96/31/3 95/190/3
f 97/185/5 88/192/5 7/191/5
f 98/187/5 87/194/5 88/192/5
f 98/187/5 99/188/5 86/193/5
f 99/188/5 100/25/5 85/27/5
f 101/170/6 84/263/6 4/195/6
f 115/196/4 122/222/4 102/197/4
f 102/176/6 103/262/6 82/199/6
f 124/201/4 120/264/4 96/202/4
f 109/157/1 81/205/1 12/204/1
f 110/159/1 82/206/1 81/205/1
f 111/160/1 83/207/1 82/206/1
f 112/3/1 84/2/1 83/207/1
f 117/208/6 118/265/6 122/209/6
f 120/211/6 124/216/6 123/212/6
f 121/210/6 122/209/6 115/214/6
f 124/216/6 113/266/6 114/217/6
f 116/218/1 115/267/1 83/207/1
f 123/219/2 114/268/2 82/220/2
f 122/222/4 118/269/4 94/223/4
f 114/224/1 113/270/1 81/205/1
f 113/225/4 124/201/4 104/203/4
f 119/227/2 123/219/2 103/221/2
f 120/229/3 119/271/3 95/190/3
f 121/230/2 116/272/2 84/231/2
